<svg version="1.1" xmlns="http://www.w3.org/2000/svg" xmlns:xlink="http://www.w3.org/1999/xlink" viewBox="0 0 160 142.2" xml:space="preserve" width="160" height="159" class="icon_1X9"><g><path fill="rgba(0, 0, 0, 0.07)" d="M66,57.3c6.9,0,12.8-5.6,12.8-12.8c0-6.9-5.6-12.5-12.5-12.5c-7.2,0-12.8,5.6-12.8,12.8 C53.5,52,59.1,57.3,66,57.3z"></path><path fill="rgba(0, 0, 0, 0.07)" d="M83.9,44.5h2.8c0-8.2-4.9-15.5-12.4-18.7l-1.1,2.5C79.7,31.2,83.9,37.5,83.9,44.5z"></path><path fill="rgba(0, 0, 0, 0.07)" d="M66.2,65.2v-2.8c-9.8,0-17.7-7.9-17.7-17.7c0-5.1,2.2-10,6-13.4l-1.8-2.1c-4.4,3.9-6.9,9.6-6.9,15.5 C45.6,56.1,54.8,65.2,66.2,65.2z"></path><path fill="rgba(0, 0, 0, 0.07)" d="M109.7,0H53h-6.9H2.8C1.3,0,0,1.3,0,2.8v136.6c0,1.5,1.3,2.8,2.8,2.8h154.4c1.5,0,2.8-1.3,2.8-2.8V2.8 c0-1.5-1.3-2.8-2.8-2.8h-40.5H109.7z M154.4,5.6v119.7l-45.8-46.1c-0.3-0.3-0.3-0.3-0.3-0.3c-2.8-2.7-7.3-2.7-10,0.3l-26.4,27.3 l-14.8-15c-2.1-2.1-4.8-3.2-7.6-3.1c-2.7,0-5.2,1.3-6.9,3.1l-37,38.1V5.6H154.4z M93.1,136.6H6.6l40.1-41.2c0.8-0.8,1.8-1.4,3-1.4 c1.3,0,2.5,0.4,3.5,1.4L93.1,136.6z"></path></g></svg>