<?xml version="1.0" standalone="no"?>
<!DOCTYPE svg PUBLIC "-//W3C//DTD SVG 20010904//EN"
 "http://www.w3.org/TR/2001/REC-SVG-20010904/DTD/svg10.dtd">
<svg version="1.0" xmlns="http://www.w3.org/2000/svg"
 width="259.000000pt" height="78.000000pt" viewBox="0 0 259.000000 78.000000"
 preserveAspectRatio="xMidYMid meet">

<g transform="translate(0.000000,78.000000) scale(0.100000,-0.100000)"
fill="#000000" stroke="none">
<path d="M260 721 c-114 -37 -163 -113 -146 -226 11 -70 59 -113 179 -159 107
-42 137 -68 117 -105 -22 -42 -94 -22 -113 32 -5 14 -19 17 -91 17 -47 0 -88
-4 -91 -10 -11 -18 15 -90 46 -124 79 -91 255 -110 361 -41 77 51 102 167 54
250 -27 45 -96 88 -193 120 -63 20 -98 57 -82 87 6 10 17 22 25 25 23 9 63
-14 74 -42 9 -24 13 -25 95 -25 97 0 104 6 85 65 -29 88 -105 137 -220 141
-41 2 -86 0 -100 -5z"/>
<path d="M913 721 c-59 -15 -138 -67 -176 -117 -99 -129 -86 -334 28 -447 122
-119 326 -124 456 -9 98 86 131 263 74 396 -24 57 -98 131 -158 156 -56 25
-168 35 -224 21z m167 -180 c43 -30 72 -98 67 -157 -11 -108 -63 -158 -159
-151 -62 4 -96 25 -124 79 -29 56 -11 183 32 219 48 39 136 44 184 10z"/>
<path d="M1417 713 c-4 -3 -7 -35 -7 -70 l0 -63 245 0 245 0 0 70 0 70 -238 0
c-131 0 -242 -3 -245 -7z"/>
<path d="M2104 709 c-21 -35 -232 -625 -225 -632 4 -4 45 -7 91 -5 l83 3 17
50 17 50 110 3 110 3 17 -44 c9 -23 16 -48 16 -55 0 -13 175 -18 183 -4 5 6
-212 605 -228 631 -8 15 -182 15 -191 0z m125 -291 c13 -40 26 -79 28 -85 4
-10 -11 -13 -56 -13 -34 0 -61 3 -61 6 0 15 55 164 60 164 3 0 17 -33 29 -72z"/>
<path d="M1412 393 l3 -68 178 -3 177 -2 0 70 0 70 -180 0 -181 0 3 -67z"/>
<path d="M1412 143 l3 -68 85 0 85 0 3 68 3 67 -91 0 -91 0 3 -67z"/>
</g>
</svg>
